<svg xmlns="http://www.w3.org/2000/svg" width="25" height="26" viewBox="0 0 25 26" fill="none">
<path d="M22.6158 7.57467C22.7058 7.52267 22.7958 7.46489 22.8801 7.41867C22.9026 7.40133 22.9195 7.38978 22.9363 7.384C23.0263 7.332 23.1163 7.28 23.2006 7.228C23.2063 7.228 23.2063 7.22222 23.2175 7.22222H23.2344C23.2344 7.22222 23.24 7.21644 23.2512 7.21644C23.5155 7.03733 23.7461 6.83511 23.9597 6.59822C24.612 5.89333 25 4.94578 25 3.91733C25 1.88933 23.493 0.213778 21.5756 0.0231111C21.4519 0.00577776 21.3225 0 21.1876 0C20.9908 0 20.794 0.0173334 20.6028 0.0520001C20.5803 0.0520001 20.5578 0.0520001 20.5353 0.0693334C20.5297 0.0693334 20.5128 0.0693334 20.5072 0.0751112C20.4341 0.0924445 20.361 0.104 20.2879 0.121333C20.1248 0.150222 19.9618 0.190667 19.7987 0.213778C18.4379 0.473778 17.049 0.670222 15.6489 0.774222C15.5814 0.78 15.5252 0.791556 15.4577 0.791556C14.4906 0.866667 13.5234 0.901333 12.5394 0.901333C9.82344 0.901333 7.16374 0.618222 4.58839 0.0808889C4.58277 0.0751112 4.57152 0.0751112 4.5659 0.0751112C4.32411 0.0231112 4.0767 0 3.81804 0C3.7112 0 3.59874 0.00577776 3.4919 0.0231111C1.53509 0.179111 0 1.86044 0 3.91156C0 5.26933 0.680387 6.47111 1.70378 7.176H1.7094C1.97931 7.36089 2.27733 7.51111 2.59222 7.62089H2.59784C2.80027 7.67867 3.00832 7.73067 3.21075 7.77689C4.90328 8.19867 6.63518 8.50489 8.40643 8.69556C5.62303 11.6596 3.27823 15.0569 1.47323 18.772C1.47323 18.7778 1.46761 18.7778 1.46761 18.7893C1.44512 18.8182 1.43387 18.8587 1.41138 18.8933C1.39451 18.928 1.37202 18.9684 1.36077 18.9973C1.36077 19.0031 1.35515 19.0031 1.35515 19.0147C1.16397 19.396 0.989654 19.7947 0.81534 20.1933C0.809717 20.1991 0.79847 20.2164 0.79847 20.2222C0.702879 20.4302 0.607287 20.6498 0.522942 20.8751C0.517319 20.8924 0.517319 20.8982 0.506073 20.9156C0.42735 21.1871 0.376743 21.4702 0.354251 21.7649C0.348628 21.8689 0.337382 21.9729 0.337382 22.0827C0.337382 24.2436 2.04678 26 4.1498 26C5.2238 26 6.19096 25.5436 6.88259 24.804C6.88821 24.7982 6.90508 24.7809 6.91071 24.7751C7.09064 24.5787 7.25371 24.3707 7.39991 24.1396C7.44489 24.0644 7.48988 23.9836 7.52362 23.8969C8.71008 21.5684 10.1046 19.3671 11.679 17.3333C11.679 17.3333 11.6847 17.3276 11.6959 17.316C11.7409 17.264 11.7915 17.1947 11.8365 17.1427L11.8534 17.1253C12.8543 15.8427 13.9339 14.6236 15.081 13.4853L15.1091 13.4564C15.1541 13.4102 15.1991 13.364 15.2497 13.3236C15.2553 13.3178 15.2722 13.3004 15.2778 13.2947C17.4933 11.1107 19.9449 9.19245 22.6046 7.58622C22.6046 7.58045 22.6102 7.58045 22.6102 7.58045L22.6158 7.57467Z" fill="url(#paint0_linear_157_5414)"/>
<path d="M23.28 18.5872C23.28 18.5872 23.2526 18.5634 23.2362 18.5575C22.9677 18.3732 22.6719 18.2246 22.3652 18.1235C22.3488 18.1176 22.3323 18.1057 22.3159 18.1057C22.1735 18.07 22.0256 18.0284 21.8831 17.9987C21.8612 17.9927 21.8393 17.9927 21.8119 17.9808C19.9823 17.5112 18.1035 17.1843 16.1862 17.0178H16.1589C16.1096 17.0119 16.0603 17.0119 16 17C16.0055 17.0059 16.0055 17.0178 16.0055 17.0238C16.011 17.0832 16.0274 17.1486 16.0438 17.2021C16.0438 17.2081 16.0493 17.2199 16.0493 17.2259C16.4766 19.2649 17.0408 21.2444 17.7365 23.1526C17.7419 23.1704 17.7529 23.1882 17.7584 23.212C17.7803 23.2893 17.8022 23.3606 17.8296 23.4379C17.8515 23.4914 17.8734 23.5449 17.8953 23.5984C17.9008 23.6162 17.9117 23.6222 17.9172 23.6341C17.9227 23.6579 17.9337 23.6876 17.9446 23.7114C18.087 24.0264 18.2623 24.3236 18.4705 24.5911L18.4869 24.609C19.1716 25.459 20.1686 26 21.2861 26C23.3348 26 25 24.1929 25 21.9696C25 20.5489 24.3153 19.2946 23.28 18.5872Z" fill="url(#paint1_linear_157_5414)"/>
<defs>
<linearGradient id="paint0_linear_157_5414" x1="0" y1="12.9884" x2="24.9944" y2="12.9884" gradientUnits="userSpaceOnUse">
<stop stop-color="#009540"/>
<stop offset="0.4" stop-color="#4AAA2F"/>
<stop offset="0.77" stop-color="#94C01F"/>
</linearGradient>
<linearGradient id="paint1_linear_157_5414" x1="16.0055" y1="21.5059" x2="1.2045" y2="21.5059" gradientUnits="userSpaceOnUse">
<stop stop-color="#009540"/>
<stop offset="0.4" stop-color="#4AAA2F"/>
<stop offset="0.77" stop-color="#94C01F"/>
</linearGradient>
</defs>
</svg>
